<svg width="25" height="25" viewBox="0 0 25 25" fill="none" xmlns="http://www.w3.org/2000/svg">
<path d="M3.90625 5.46875C3.47595 5.46875 3.125 5.8197 3.125 6.25C3.125 6.6803 3.47595 7.03125 3.90625 7.03125H5.63965L7.69043 15.2344C7.86438 15.9302 8.48694 16.4062 9.2041 16.4062H18.1641C18.869 16.4062 19.4672 15.9393 19.6533 15.2588L21.6797 7.8125H8.59375L8.98438 9.375H19.6533L18.1641 14.8438H9.2041L7.15332 6.64062C6.97937 5.94482 6.35681 5.46875 5.63965 5.46875H3.90625ZM17.1875 16.4062C15.9027 16.4062 14.8438 17.4652 14.8438 18.75C14.8438 20.0348 15.9027 21.0938 17.1875 21.0938C18.4723 21.0938 19.5312 20.0348 19.5312 18.75C19.5312 17.4652 18.4723 16.4062 17.1875 16.4062ZM10.1562 16.4062C8.87146 16.4062 7.8125 17.4652 7.8125 18.75C7.8125 20.0348 8.87146 21.0938 10.1562 21.0938C11.441 21.0938 12.5 20.0348 12.5 18.75C12.5 17.4652 11.441 16.4062 10.1562 16.4062ZM10.1562 17.9688C10.5957 17.9688 10.9375 18.3105 10.9375 18.75C10.9375 19.1895 10.5957 19.5312 10.1562 19.5312C9.7168 19.5312 9.375 19.1895 9.375 18.75C9.375 18.3105 9.7168 17.9688 10.1562 17.9688ZM17.1875 17.9688C17.627 17.9688 17.9688 18.3105 17.9688 18.75C17.9688 19.1895 17.627 19.5312 17.1875 19.5312C16.748 19.5312 16.4062 19.1895 16.4062 18.75C16.4062 18.3105 16.748 17.9688 17.1875 17.9688Z" fill="#5567F7"/>
</svg>
