<svg width="93" height="46" viewBox="0 0 93 46" fill="none" xmlns="http://www.w3.org/2000/svg">
<path d="M6.6254 34.7348H13.316C13.4753 34.7348 13.6128 34.7927 13.7287 34.9086C13.8446 35.0244 13.9025 35.162 13.9025 35.3213V38.3842C13.9025 38.5435 13.8446 38.6811 13.7287 38.7969C13.6128 38.9128 13.4753 38.9707 13.316 38.9707H1.99848C1.83918 38.9707 1.70161 38.9128 1.58575 38.7969C1.4699 38.6811 1.41197 38.5435 1.41197 38.3842V24.3514C1.41197 24.1921 1.4699 24.0545 1.58575 23.9386C1.70161 23.8228 1.83918 23.7649 1.99848 23.7649H13.1422C13.3015 23.7649 13.4391 23.8228 13.5549 23.9386C13.6708 24.0545 13.7287 24.1921 13.7287 24.3514V27.4143C13.7287 27.5736 13.6708 27.7111 13.5549 27.827C13.4391 27.9428 13.3015 28.0008 13.1422 28.0008H6.6254V29.3693H12.6643C12.8236 29.3693 12.9612 29.4272 13.077 29.5431C13.1929 29.6589 13.2508 29.7965 13.2508 29.9558V32.7798C13.2508 32.9391 13.1929 33.0766 13.077 33.1925C12.9612 33.3083 12.8236 33.3663 12.6643 33.3663H6.6254V34.7348ZM23.8148 38.9707H20.3392C20.0351 38.9707 19.7961 38.7897 19.6223 38.4276L15.4516 28.3701C15.4371 28.3266 15.4299 28.2542 15.4299 28.1528C15.4299 28.0515 15.4805 27.9501 15.5819 27.8487C15.6833 27.7473 15.8064 27.6967 15.9512 27.6967H19.6223C19.9699 27.6967 20.2088 27.8704 20.3392 28.218L22.077 33.2577L23.8148 28.1963C23.9451 27.8487 24.1841 27.6749 24.5316 27.6749H28.2028C28.3476 27.6749 28.4707 27.7256 28.572 27.827C28.6734 27.9284 28.7241 28.0297 28.7241 28.1311C28.7241 28.2325 28.7169 28.3049 28.7024 28.3483L24.5316 38.4276C24.3579 38.7897 24.1189 38.9707 23.8148 38.9707ZM41.597 34.6045H35.1236V34.7131C35.1236 35.5965 35.406 36.0381 35.9708 36.0381C36.1301 36.0381 36.3256 35.9223 36.5573 35.6906C36.789 35.4589 37.0425 35.343 37.3176 35.343H41.4232C41.7418 35.343 41.9011 35.5023 41.9011 35.8209C41.9011 36.5305 41.3653 37.2691 40.2936 38.0366C39.2364 38.8042 37.7955 39.1879 35.9708 39.1879C34.1606 39.1879 32.6762 38.7173 31.5177 37.776C30.3736 36.8202 29.8016 35.5096 29.8016 33.8442V32.8015C29.8016 31.223 30.3881 29.9413 31.5611 28.9566C32.7341 27.9573 34.2692 27.4577 36.1663 27.4577C38.0779 27.4577 39.555 28.0153 40.5977 29.1304C41.6549 30.2454 42.1835 31.6574 42.1835 33.3663V34.0179C42.1835 34.1772 42.1255 34.3148 42.0097 34.4307C41.8938 34.5465 41.7563 34.6045 41.597 34.6045ZM36.8614 31.8022C36.8614 30.9333 36.5718 30.4989 35.9925 30.4989C35.4133 30.4989 35.1236 30.9333 35.1236 31.8022V31.8891H36.8614V31.8022ZM48.7795 28.2614V29.0217C49.7932 28.1239 50.9228 27.6749 52.1682 27.6749H53.2109C53.3702 27.6749 53.5078 27.7329 53.6237 27.8487C53.7395 27.9646 53.7974 28.1021 53.7974 28.2614V31.6502C53.7974 31.8095 53.7395 31.9471 53.6237 32.0629C53.5078 32.1788 53.3702 32.2367 53.2109 32.2367H50.4087C50.0177 32.2367 49.7063 32.3308 49.4746 32.5191C49.2574 32.6929 49.1343 32.9318 49.1054 33.2359V38.3842C49.1054 38.5435 49.0474 38.6811 48.9316 38.7969C48.8157 38.9128 48.6781 38.9707 48.5188 38.9707H44.3915C44.2322 38.9707 44.0947 38.9128 43.9788 38.7969C43.863 38.6811 43.805 38.5435 43.805 38.3842V28.2614C43.805 28.1021 43.863 27.9646 43.9788 27.8487C44.0947 27.7329 44.2322 27.6749 44.3915 27.6749H48.193C48.3523 27.6749 48.4899 27.7329 48.6057 27.8487C48.7216 27.9646 48.7795 28.1021 48.7795 28.2614ZM67.0107 34.6045H60.5374V34.7131C60.5374 35.5965 60.8198 36.0381 61.3846 36.0381C61.5439 36.0381 61.7394 35.9223 61.9711 35.6906C62.2028 35.4589 62.4562 35.343 62.7314 35.343H66.837C67.1556 35.343 67.3149 35.5023 67.3149 35.8209C67.3149 36.5305 66.779 37.2691 65.7074 38.0366C64.6502 38.8042 63.2093 39.1879 61.3846 39.1879C59.5744 39.1879 58.09 38.7173 56.9314 37.776C55.7874 36.8202 55.2154 35.5096 55.2154 33.8442V32.8015C55.2154 31.223 55.8019 29.9413 56.9749 28.9566C58.1479 27.9573 59.683 27.4577 61.5801 27.4577C63.4917 27.4577 64.9688 28.0153 66.0115 29.1304C67.0687 30.2454 67.5973 31.6574 67.5973 33.3663V34.0179C67.5973 34.1772 67.5393 34.3148 67.4235 34.4307C67.3076 34.5465 67.17 34.6045 67.0107 34.6045ZM62.2752 31.8022C62.2752 30.9333 61.9856 30.4989 61.4063 30.4989C60.827 30.4989 60.5374 30.9333 60.5374 31.8022V31.8891H62.2752V31.8022ZM75.4532 35.8426C75.4532 35.6978 75.417 35.582 75.3446 35.4951C75.1563 35.2634 74.4612 35.0389 73.2592 34.8217C72.0572 34.59 71.0797 34.1917 70.3267 33.6269C69.5881 33.0477 69.2188 32.2439 69.2188 31.2157C69.2188 30.1875 69.7112 29.3041 70.696 28.5656C71.6807 27.827 73.0058 27.4577 74.6712 27.4577C76.3511 27.4577 77.7268 27.8053 78.7985 28.5004C79.8701 29.1955 80.406 29.8979 80.406 30.6075C80.406 30.7668 80.3553 30.9044 80.2539 31.0202C80.167 31.1361 80.0584 31.194 79.9281 31.194H76.2787C76.0614 31.194 75.7935 31.0781 75.4749 30.8464C75.1563 30.6147 74.9174 30.4989 74.7581 30.4989C74.425 30.4989 74.2585 30.6147 74.2585 30.8464C74.2585 30.9913 74.2947 31.1071 74.3671 31.194C74.5553 31.4112 75.3446 31.6212 76.7348 31.824C78.1251 32.0267 79.1605 32.4756 79.8412 33.1708C80.5363 33.8514 80.8839 34.6117 80.8839 35.4516C80.8839 36.6247 80.3553 37.5443 79.2981 38.2104C78.2409 38.8766 76.7421 39.2097 74.8015 39.2097C73.7733 39.2097 72.861 39.0938 72.0645 38.8621C71.268 38.6304 70.6597 38.3407 70.2398 37.9932C69.4143 37.3125 69.0016 36.6753 69.0016 36.0816C69.0016 35.9223 69.0523 35.7847 69.1536 35.6689C69.255 35.553 69.3781 35.4951 69.5229 35.4951H73.3027C73.5054 35.4951 73.7661 35.6109 74.0847 35.8426C74.4178 36.0599 74.7291 36.1685 75.0188 36.1685C75.3084 36.1685 75.4532 36.0599 75.4532 35.8426ZM89.0628 31.4764V33.8659C89.0628 34.59 89.3741 34.952 89.9968 34.952H91.9736C92.1329 34.952 92.2705 35.0099 92.3863 35.1258C92.5022 35.2417 92.5601 35.3792 92.5601 35.5385V38.3842C92.5601 38.5435 92.5022 38.6811 92.3863 38.7969C92.2705 38.9128 92.1329 38.9707 91.9736 38.9707H89.5189C85.8985 38.9707 84.0883 37.4139 84.0883 34.3003V31.4764H82.3722C82.2129 31.4764 82.0753 31.4185 81.9595 31.3026C81.8436 31.1868 81.7857 31.0492 81.7857 30.8899V28.2614C81.7857 28.1021 81.8436 27.9646 81.9595 27.8487C82.0753 27.7329 82.2129 27.6749 82.3722 27.6749H84.0883V24.1341C84.0883 23.9748 84.1462 23.8373 84.2621 23.7214C84.3779 23.6056 84.5155 23.5476 84.6748 23.5476H88.4763C88.6356 23.5476 88.7731 23.6056 88.889 23.7214C89.0048 23.8373 89.0628 23.9748 89.0628 24.1341V27.6749H91.7998C91.9591 27.6749 92.0967 27.7329 92.2126 27.8487C92.3284 27.9646 92.3863 28.1021 92.3863 28.2614V30.8899C92.3863 31.0492 92.3284 31.1868 92.2126 31.3026C92.0967 31.4185 91.9591 31.4764 91.7998 31.4764H89.0628Z" fill="white"/>
<path d="M16.292 24.7409L29.8871 9.90987L37.5498 18.3141L52.6279 2L58.4687 7.84077M76.8519 22.5162L60.2906 5.95493L46.2012 20.5388L42.4934 16.831" stroke="white" stroke-width="3.39416" stroke-linejoin="round"/>
</svg>
