<svg width="44" height="32" viewBox="0 0 44 32" fill="none" xmlns="http://www.w3.org/2000/svg">
<path d="M21.4023 0C14.8008 0 8.60156 0.5 5.30078 1.19922C3.10156 1.69922 1.19922 3.19922 0.800781 5.5C0.402344 7.89844 0 11.5 0 16C0 20.5 0.398438 24 0.898438 26.5C1.30078 28.6992 3.19922 30.3008 5.39844 30.8008C8.90234 31.5 14.8984 32 21.5 32C28.1016 32 34.0977 31.5 37.5977 30.8008C39.8008 30.3008 41.6992 28.8008 42.0977 26.5C42.5 24 43 20.4023 43.0977 15.9023C43.0977 11.4023 42.5977 7.80078 42.0977 5.30078C41.6992 3.10156 39.8008 1.5 37.5977 1C34.0977 0.5 28 0 21.4023 0ZM21.4023 2C28.6016 2 34.3984 2.59766 37.1992 3.09766C38.6992 3.5 39.8984 4.5 40.0977 5.80078C40.6992 9 41.0977 12.4023 41.0977 15.9023C41 20.1992 40.5 23.6992 40.0977 26.1992C39.8008 28.0977 37.8008 28.6992 37.1992 28.9023C33.5977 29.6016 27.5977 30.0977 21.5977 30.0977C15.5977 30.0977 9.5 29.6992 6 28.9023C4.5 28.5 3.30078 27.5 3.10156 26.1992C2.30078 23.3984 2 19.6992 2 16C2 11.3984 2.40234 8 2.80078 5.90234C3.10156 4 5.19922 3.39844 5.69922 3.19922C9 2.5 15.1016 2 21.4023 2ZM16 8V24L30 16L16 8ZM18 11.4023L26 16L18 20.5977V11.4023Z" fill="white"/>
</svg>
